<svg width="102" height="40" viewBox="0 0 102 40" fill="none" xmlns="http://www.w3.org/2000/svg">
<path d="M53.6438 18.0954V20.9292H45.1497V18.0954H53.6438ZM46.3101 11.5057V27.8788H42.6376V11.5057H46.3101ZM56.1785 11.5057V27.8788H52.5172V11.5057H56.1785ZM65.923 14.6206L61.6875 27.8788H57.7669L63.8386 11.5057H66.3176L65.923 14.6206ZM69.4377 27.8788L65.1907 14.6206L64.7512 11.5057H67.2635L73.358 27.8788H69.4377ZM69.2574 21.7839V24.6176H60.7072V21.7839H69.2574ZM78.3937 11.5057V27.8788H74.7211V11.5057H78.3937ZM84.8488 18.4103V21.244H77.3688V18.4103H84.8488ZM85.5695 11.5057V14.3507H77.3688V11.5057H85.5695ZM101.037 19.3323V20.0633C101.037 21.3078 100.865 22.4248 100.519 23.4144C100.181 24.404 99.6965 25.2474 99.0657 25.9446C98.4421 26.6418 97.699 27.1778 96.835 27.5526C95.979 27.92 95.0288 28.1037 93.9851 28.1037C92.9408 28.1037 91.987 27.92 91.1236 27.5526C90.2597 27.1778 89.5086 26.6418 88.8705 25.9446C88.2397 25.2474 87.7516 24.404 87.4061 23.4144C87.0606 22.4248 86.8876 21.3078 86.8876 20.0633V19.3323C86.8876 18.0879 87.0606 16.9709 87.4061 15.9812C87.7516 14.9842 88.2361 14.1371 88.859 13.4399C89.4904 12.7426 90.2372 12.2103 91.1012 11.843C91.9645 11.4682 92.9183 11.2808 93.9626 11.2808C95.0063 11.2808 95.9601 11.4682 96.8241 11.843C97.6875 12.2103 98.4312 12.7426 99.0541 13.4399C99.6856 14.1371 100.174 14.9842 100.519 15.9812C100.865 16.9709 101.037 18.0879 101.037 19.3323ZM97.3311 20.0633V19.3099C97.3311 18.4777 97.2558 17.743 97.1052 17.1058C96.9552 16.4611 96.7373 15.9213 96.4519 15.4865C96.1666 15.0517 95.8138 14.7255 95.3931 14.5082C94.9723 14.2832 94.4957 14.1708 93.9626 14.1708C93.4065 14.1708 92.9226 14.2832 92.5091 14.5082C92.0963 14.7255 91.7472 15.0517 91.4618 15.4865C91.1837 15.9213 90.9694 16.4611 90.8195 17.1058C90.6768 17.743 90.6051 18.4777 90.6051 19.3099V20.0633C90.6051 20.888 90.6768 21.6226 90.8195 22.2674C90.9694 22.9046 91.1874 23.4444 91.4727 23.8867C91.7581 24.329 92.1072 24.6626 92.5207 24.8875C92.9408 25.1124 93.429 25.2249 93.9851 25.2249C94.5182 25.2249 94.9911 25.1124 95.4046 24.8875C95.8247 24.6626 96.1781 24.329 96.4635 23.8867C96.7488 23.4444 96.9625 22.9046 97.1052 22.2674C97.2558 21.6226 97.3311 20.888 97.3311 20.0633Z" fill="white"/>
<g clip-path="url(#clip0_319_2310)">
<mask id="mask0_319_2310" style="mask-type:luminance" maskUnits="userSpaceOnUse" x="1" y="3" width="33" height="33">
<path d="M34 3H1V36H34V3Z" fill="white"/>
</mask>
<g mask="url(#mask0_319_2310)">
<path d="M8.52973 19.1006L3.42749 11.1592C3.87092 10.176 5.06992 8.76837 6.26565 7.52C7.71533 6.00651 9.47283 4.79527 11.4584 4.12476C19.7011 1.34131 25.3027 4.34712 27.2105 6.42728C14.4055 3.99137 9.42123 13.8612 8.52973 19.1006Z" fill="#00A3FF"/>
<path d="M21.866 11.4569L31.2446 10.3887C31.585 10.8015 31.9369 11.4273 32.2773 12.1515C33.8979 15.5986 34.4528 19.5435 33.5252 23.2379C31.811 30.0642 27.4079 33.1051 24.9809 33.815C32.8241 23.4041 26.1723 14.5717 21.866 11.4569Z" fill="#00A3FF"/>
<path d="M21.414 27.5505L16.7782 35.7728C16.1211 35.8141 15.1929 35.6804 14.1912 35.4623C10.8354 34.7315 7.67788 33.0827 5.40197 30.5106C0.504614 24.9758 0.607792 19.4041 1.4788 16.9592C5.31034 29.4179 16.3654 29.2112 21.414 27.5505Z" fill="#00A3FF"/>
</g>
</g>
<defs>
<clipPath id="clip0_319_2310">
<rect width="33" height="33" fill="white" transform="translate(1 3)"/>
</clipPath>
</defs>
</svg>
