<svg width="102" height="50" viewBox="0 0 1356 847" fill="none" xmlns="http://www.w3.org/2000/svg">
<path d="M216 846.5V0.5L427 82.5V753L216 846.5Z" fill="#00A3FF"/>
<path d="M0 663V184L116 232V609.5L0 663Z" fill="#00A3FF"/>
<g clip-path="url(#clip0_697_962)">
<path d="M717.227 405.445V451.148H568.789V405.445H717.227ZM586.172 289.625V574H527.578V289.625H586.172ZM759.023 289.625V574H700.625V289.625H759.023ZM920.547 526.344V432.203C920.547 425.432 919.44 419.638 917.227 414.82C915.013 409.872 911.562 406.031 906.875 403.297C902.318 400.562 896.393 399.195 889.102 399.195C882.852 399.195 877.448 400.302 872.891 402.516C868.333 404.599 864.818 407.659 862.344 411.695C859.87 415.602 858.633 420.224 858.633 425.562H802.383C802.383 416.578 804.466 408.049 808.633 399.977C812.799 391.904 818.854 384.807 826.797 378.688C834.74 372.438 844.18 367.555 855.117 364.039C866.185 360.523 878.555 358.766 892.227 358.766C908.633 358.766 923.216 361.5 935.977 366.969C948.737 372.438 958.763 380.641 966.055 391.578C973.477 402.516 977.188 416.188 977.188 432.594V523.023C977.188 534.612 977.904 544.117 979.336 551.539C980.768 558.831 982.852 565.211 985.586 570.68V574H928.75C926.016 568.271 923.932 561.109 922.5 552.516C921.198 543.792 920.547 535.068 920.547 526.344ZM927.969 445.289L928.359 477.125H896.914C889.492 477.125 883.047 477.971 877.578 479.664C872.109 481.357 867.617 483.766 864.102 486.891C860.586 489.885 857.982 493.401 856.289 497.438C854.727 501.474 853.945 505.901 853.945 510.719C853.945 515.536 855.052 519.898 857.266 523.805C859.479 527.581 862.669 530.576 866.836 532.789C871.003 534.872 875.885 535.914 881.484 535.914C889.948 535.914 897.305 534.221 903.555 530.836C909.805 527.451 914.622 523.284 918.008 518.336C921.523 513.388 923.346 508.701 923.477 504.273L938.32 528.102C936.237 533.44 933.372 538.974 929.727 544.703C926.211 550.432 921.719 555.836 916.25 560.914C910.781 565.862 904.206 569.964 896.523 573.219C888.841 576.344 879.727 577.906 869.18 577.906C855.768 577.906 843.594 575.237 832.656 569.898C821.849 564.43 813.255 556.943 806.875 547.438C800.625 537.802 797.5 526.865 797.5 514.625C797.5 503.557 799.583 493.727 803.75 485.133C807.917 476.539 814.036 469.312 822.109 463.453C830.312 457.464 840.534 452.971 852.773 449.977C865.013 446.852 879.206 445.289 895.352 445.289H927.969ZM1092.23 574H1035.59V343.922C1035.59 327.906 1038.71 314.43 1044.96 303.492C1051.34 292.424 1060.26 284.091 1071.72 278.492C1083.31 272.763 1097.04 269.898 1112.93 269.898C1118.14 269.898 1123.15 270.289 1127.97 271.07C1132.79 271.721 1137.47 272.568 1142.03 273.609L1141.45 315.992C1138.97 315.341 1136.37 314.885 1133.63 314.625C1130.9 314.365 1127.71 314.234 1124.06 314.234C1117.29 314.234 1111.5 315.406 1106.68 317.75C1101.99 319.964 1098.41 323.284 1095.94 327.711C1093.46 332.138 1092.23 337.542 1092.23 343.922V574ZM1134.41 362.672V402.516H1004.14V362.672H1134.41ZM1154.92 470.484V466.383C1154.92 450.888 1157.14 436.63 1161.56 423.609C1165.99 410.458 1172.43 399.065 1180.9 389.43C1189.36 379.794 1199.78 372.307 1212.15 366.969C1224.52 361.5 1238.71 358.766 1254.73 358.766C1270.74 358.766 1285 361.5 1297.5 366.969C1310 372.307 1320.48 379.794 1328.95 389.43C1337.54 399.065 1344.05 410.458 1348.48 423.609C1352.9 436.63 1355.12 450.888 1355.12 466.383V470.484C1355.12 485.849 1352.9 500.107 1348.48 513.258C1344.05 526.279 1337.54 537.672 1328.95 547.438C1320.48 557.073 1310.07 564.56 1297.7 569.898C1285.33 575.237 1271.13 577.906 1255.12 577.906C1239.1 577.906 1224.84 575.237 1212.34 569.898C1199.97 564.56 1189.49 557.073 1180.9 547.438C1172.43 537.672 1165.99 526.279 1161.56 513.258C1157.14 500.107 1154.92 485.849 1154.92 470.484ZM1211.17 466.383V470.484C1211.17 479.339 1211.95 487.607 1213.52 495.289C1215.08 502.971 1217.55 509.742 1220.94 515.602C1224.45 521.331 1229.01 525.823 1234.61 529.078C1240.21 532.333 1247.04 533.961 1255.12 533.961C1262.93 533.961 1269.64 532.333 1275.23 529.078C1280.83 525.823 1285.33 521.331 1288.71 515.602C1292.1 509.742 1294.57 502.971 1296.13 495.289C1297.83 487.607 1298.67 479.339 1298.67 470.484V466.383C1298.67 457.789 1297.83 449.716 1296.13 442.164C1294.57 434.482 1292.03 427.711 1288.52 421.852C1285.13 415.862 1280.64 411.174 1275.04 407.789C1269.44 404.404 1262.67 402.711 1254.73 402.711C1246.78 402.711 1240.01 404.404 1234.41 407.789C1228.95 411.174 1224.45 415.862 1220.94 421.852C1217.55 427.711 1215.08 434.482 1213.52 442.164C1211.95 449.716 1211.17 457.789 1211.17 466.383Z" fill="white"/>
</g>
<defs>
<clipPath id="clip0_697_962">
<rect width="829" height="309" fill="white" transform="translate(527 269)"/>
</clipPath>
</defs>
</svg>
