<svg width="40" height="32" viewBox="0 0 40 32" fill="none" xmlns="http://www.w3.org/2000/svg">
<path d="M24.5484 0.0783829C23.4859 -0.227867 22.3797 0.390883 22.0734 1.45338L14.0734 29.4534C13.7672 30.5159 14.3859 31.6221 15.4484 31.9284C16.5109 32.2346 17.6172 31.6159 17.9234 30.5534L25.9234 2.55338C26.2297 1.49088 25.6109 0.384633 24.5484 0.0783829ZM29.5859 7.58463C28.8047 8.36588 28.8047 9.63463 29.5859 10.4159L35.1672 16.0034L29.5797 21.5909C28.7984 22.3721 28.7984 23.6409 29.5797 24.4221C30.3609 25.2034 31.6297 25.2034 32.4109 24.4221L39.4109 17.4221C40.1922 16.6409 40.1922 15.3721 39.4109 14.5909L32.4109 7.59088C31.6297 6.80963 30.3609 6.80963 29.5797 7.59088L29.5859 7.58463ZM10.4172 7.58463C9.63594 6.80338 8.36719 6.80338 7.58594 7.58463L0.585938 14.5846C-0.195312 15.3659 -0.195312 16.6346 0.585938 17.4159L7.58594 24.4159C8.36719 25.1971 9.63594 25.1971 10.4172 24.4159C11.1984 23.6346 11.1984 22.3659 10.4172 21.5846L4.82969 16.0034L10.4172 10.4159C11.1984 9.63463 11.1984 8.36588 10.4172 7.58463Z" fill="url(#paint0_linear_520_2399)"/>
<defs>
<linearGradient id="paint0_linear_520_2399" x1="19.9984" y1="0" x2="19.9984" y2="32.0068" gradientUnits="userSpaceOnUse">
<stop stop-color="#8A2BE2"/>
<stop offset="1" stop-color="#B7A8C6"/>
</linearGradient>
</defs>
</svg>
