<svg width="46" height="44" viewBox="0 0 46 44" fill="none" xmlns="http://www.w3.org/2000/svg">
<path d="M25.6011 28.4969C27.6089 28.226 29.4182 27.1496 30.5435 25.5175L42.436 8.14836C43.3627 6.79411 43.1274 5.00233 41.8771 3.89809C40.6268 2.79386 38.7219 2.69663 37.3539 3.66891L19.9453 16.003C18.1802 17.2531 17.1358 19.2046 17.1211 21.2881L25.6011 28.4969ZM24.1596 30.2609L15.6281 23.0104C11.2299 23.1632 7.70703 26.587 7.70703 30.7817C7.70703 31.0526 7.72173 31.3234 7.75115 31.5873C7.88354 32.8027 7.00097 34.1153 5.70654 34.1153H5.35351C4.05173 34.1153 3 35.1084 3 36.3376C3 37.5669 4.05173 38.56 5.35351 38.56H15.9443C20.4969 38.56 24.1816 35.0806 24.1816 30.7817C24.1816 30.6081 24.1743 30.4345 24.1669 30.2609H24.1596Z" fill="url(#paint0_linear_520_2405)"/>
<defs>
<linearGradient id="paint0_linear_520_2405" x1="23" y1="3" x2="23" y2="38.56" gradientUnits="userSpaceOnUse">
<stop stop-color="#44B2DF"/>
<stop offset="1" stop-color="#AEDCF1"/>
</linearGradient>
</defs>
</svg>
