<svg width="38" height="40" viewBox="0 0 38 40" fill="none" xmlns="http://www.w3.org/2000/svg">
<path d="M37.5967 13.0156C37.8467 13.6953 37.6358 14.4531 37.0967 14.9375L33.7139 18.0156C33.7998 18.6641 33.8467 19.3281 33.8467 20C33.8467 20.6719 33.7998 21.3359 33.7139 21.9844L37.0967 25.0625C37.6358 25.5469 37.8467 26.3047 37.5967 26.9844C37.2529 27.9141 36.8389 28.8047 36.3623 29.6641L35.9951 30.2969C35.4795 31.1562 34.9014 31.9688 34.2686 32.7344C33.8076 33.2969 33.042 33.4844 32.3545 33.2656L28.0029 31.8828C26.9561 32.6875 25.7998 33.3594 24.5654 33.8672L23.5889 38.3281C23.4326 39.0391 22.8858 39.6016 22.167 39.7188C21.0889 39.8984 19.9795 39.9922 18.8467 39.9922C17.7139 39.9922 16.6045 39.8984 15.5264 39.7188C14.8076 39.6016 14.2608 39.0391 14.1045 38.3281L13.1279 33.8672C11.8936 33.3594 10.7373 32.6875 9.69045 31.8828L5.3467 33.2734C4.6592 33.4922 3.89357 33.2969 3.43264 32.7422C2.79982 31.9766 2.2217 31.1641 1.70607 30.3047L1.33889 29.6719C0.862325 28.8125 0.448262 27.9219 0.104512 26.9922C-0.145488 26.3125 0.0654497 25.5547 0.604512 25.0703L3.98732 21.9922C3.90139 21.3359 3.85451 20.6719 3.85451 20C3.85451 19.3281 3.90139 18.6641 3.98732 18.0156L0.604512 14.9375C0.0654497 14.4531 -0.145488 13.6953 0.104512 13.0156C0.448262 12.0859 0.862325 11.1953 1.33889 10.3359L1.70607 9.70312C2.2217 8.84375 2.79982 8.03125 3.43264 7.26562C3.89357 6.70312 4.6592 6.51562 5.3467 6.73438L9.69826 8.11719C10.7451 7.3125 11.9014 6.64062 13.1358 6.13281L14.1123 1.67188C14.2686 0.960938 14.8154 0.398438 15.5342 0.28125C16.6123 0.09375 17.7217 0 18.8545 0C19.9873 0 21.0967 0.09375 22.1748 0.273438C22.8936 0.390625 23.4404 0.953125 23.5967 1.66406L24.5733 6.125C25.8076 6.63281 26.9639 7.30469 28.0108 8.10938L32.3623 6.72656C33.0498 6.50781 33.8154 6.70312 34.2764 7.25781C34.9092 8.02344 35.4873 8.83594 36.0029 9.69531L36.3701 10.3281C36.8467 11.1875 37.2608 12.0781 37.6045 13.0078L37.5967 13.0156ZM18.8545 26.25C20.5121 26.25 22.1018 25.5915 23.2739 24.4194C24.446 23.2473 25.1045 21.6576 25.1045 20C25.1045 18.3424 24.446 16.7527 23.2739 15.5806C22.1018 14.4085 20.5121 13.75 18.8545 13.75C17.1969 13.75 15.6072 14.4085 14.4351 15.5806C13.263 16.7527 12.6045 18.3424 12.6045 20C12.6045 21.6576 13.263 23.2473 14.4351 24.4194C15.6072 25.5915 17.1969 26.25 18.8545 26.25Z" fill="url(#paint0_linear_520_2426)"/>
<defs>
<linearGradient id="paint0_linear_520_2426" x1="18.8506" y1="0" x2="18.8506" y2="39.9922" gradientUnits="userSpaceOnUse">
<stop stop-color="#003366"/>
<stop offset="1" stop-color="#4169E1"/>
</linearGradient>
</defs>
</svg>
