<svg width="40" height="36" viewBox="0 0 40 36" fill="none" xmlns="http://www.w3.org/2000/svg">
<g clip-path="url(#clip0_520_2434)">
<path d="M26.6666 11.25C25.4375 11.25 24.4444 10.2445 24.4444 9C24.4444 7.75547 25.4375 6.75 26.6666 6.75H37.7777C39.0069 6.75 40 7.75547 40 9V20.25C40 21.4945 39.0069 22.5 37.7777 22.5C36.5486 22.5 35.5555 21.4945 35.5555 20.25V14.4352L23.7916 26.3391C22.9236 27.218 21.5138 27.218 20.6458 26.3391L13.3333 18.9352L3.79163 28.5891C2.92357 29.468 1.51385 29.468 0.645793 28.5891C-0.222263 27.7102 -0.222263 26.2828 0.645793 25.4039L11.7569 14.1539C12.625 13.275 14.0347 13.275 14.9027 14.1539L22.2222 21.5648L32.4097 11.25H26.6666Z" fill="url(#paint0_linear_520_2434)"/>
</g>
<defs>
<linearGradient id="paint0_linear_520_2434" x1="19.9974" y1="6.75" x2="19.9974" y2="29.2482" gradientUnits="userSpaceOnUse">
<stop stop-color="#4CAF50"/>
<stop offset="1" stop-color="#A2F2D2"/>
</linearGradient>
<clipPath id="clip0_520_2434">
<rect width="40" height="36" fill="white"/>
</clipPath>
</defs>
</svg>
