<svg width="30" height="40" viewBox="0 0 30 40" fill="none" xmlns="http://www.w3.org/2000/svg">
<path d="M21.25 30C22 27.5078 23.5547 25.3828 25.0937 23.2656C25.5 22.7109 25.9062 22.1562 26.2969 21.5937C27.8437 19.3672 28.75 16.6719 28.75 13.7578C28.75 6.15625 22.5937 0 15 0C7.40625 0 1.25 6.15625 1.25 13.75C1.25 16.6641 2.15625 19.3672 3.70312 21.5859C4.09375 22.1484 4.5 22.7031 4.90625 23.2578C6.45312 25.375 8.00781 27.5078 8.75 29.9922H21.25V30ZM15 40C18.4531 40 21.25 37.2031 21.25 33.75V32.5H8.75V33.75C8.75 37.2031 11.5469 40 15 40ZM8.75 13.75C8.75 14.4375 8.1875 15 7.5 15C6.8125 15 6.25 14.4375 6.25 13.75C6.25 8.91406 10.1641 5 15 5C15.6875 5 16.25 5.5625 16.25 6.25C16.25 6.9375 15.6875 7.5 15 7.5C11.5469 7.5 8.75 10.2969 8.75 13.75Z" fill="url(#paint0_linear_520_2386)"/>
<defs>
<linearGradient id="paint0_linear_520_2386" x1="15" y1="0" x2="15" y2="40" gradientUnits="userSpaceOnUse">
<stop stop-color="#FFD700"/>
<stop offset="1" stop-color="#FFEEAD"/>
</linearGradient>
</defs>
</svg>
