<svg width="28" height="28" viewBox="0 0 28 28" fill="none" xmlns="http://www.w3.org/2000/svg">
<path d="M14 0C11.2311 0 8.52431 0.821086 6.22202 2.35943C3.91973 3.89777 2.12532 6.08427 1.06569 8.64243C0.00606596 11.2006 -0.271181 14.0155 0.269012 16.7313C0.809205 19.447 2.14258 21.9416 4.10051 23.8995C6.05845 25.8574 8.55301 27.1908 11.2687 27.731C13.9845 28.2712 16.7994 27.9939 19.3576 26.9343C21.9157 25.8747 24.1022 24.0803 25.6406 21.778C27.1789 19.4757 28 16.7689 28 14C28 10.287 26.525 6.72601 23.8995 4.1005C21.274 1.475 17.713 0 14 0ZM21.71 9.71L11.71 19.71C11.617 19.8037 11.5064 19.8781 11.3846 19.9289C11.2627 19.9797 11.132 20.0058 11 20.0058C10.868 20.0058 10.7373 19.9797 10.6154 19.9289C10.4936 19.8781 10.383 19.8037 10.29 19.71L5.29001 14.71C5.19677 14.6168 5.12281 14.5061 5.07235 14.3842C5.02189 14.2624 4.99591 14.1319 4.99591 14C4.99591 13.7337 5.1017 13.4783 5.29001 13.29C5.47831 13.1017 5.7337 12.9959 6.00001 12.9959C6.26631 12.9959 6.5217 13.1017 6.71001 13.29L11 17.59L20.29 8.29C20.4783 8.1017 20.7337 7.99591 21 7.99591C21.2663 7.99591 21.5217 8.1017 21.71 8.29C21.8983 8.4783 22.0041 8.7337 22.0041 9C22.0041 9.2663 21.8983 9.5217 21.71 9.71Z" fill="white"/>
</svg>
