<svg width="40" height="40" viewBox="0 0 40 40" fill="none" xmlns="http://www.w3.org/2000/svg">
<path d="M30.7031 39.6555H2.93848C2.00652 39.6555 1.25098 38.8999 1.25098 37.968V3.42383C1.25098 2.49187 2.00652 1.73633 2.93848 1.73633H30.7031C31.635 1.73633 32.3906 2.49187 32.3906 3.42383V37.968C32.3906 38.8999 31.635 39.6555 30.7031 39.6555Z" fill="#DCE2E2"/>
<path d="M26.0989 11.5957H6.10645C5.52395 11.5957 5.05176 11.1235 5.05176 10.541C5.05176 9.95852 5.52395 9.48633 6.10645 9.48633H26.0989C26.6814 9.48633 27.1536 9.95852 27.1536 10.541C27.1536 11.1235 26.6815 11.5957 26.0989 11.5957ZM27.1536 15.3277C27.1536 14.7452 26.6814 14.273 26.0989 14.273H6.10645C5.52395 14.273 5.05176 14.7452 5.05176 15.3277C5.05176 15.9102 5.52395 16.3824 6.10645 16.3824H26.0989C26.6815 16.3824 27.1536 15.9102 27.1536 15.3277ZM13.6528 20.1145C13.6528 19.532 13.1806 19.0598 12.5981 19.0598H6.10645C5.52395 19.0598 5.05176 19.532 5.05176 20.1145C5.05176 20.697 5.52395 21.1692 6.10645 21.1692H12.5981C13.1806 21.1692 13.6528 20.697 13.6528 20.1145ZM27.1536 24.9013C27.1536 24.3188 26.6814 23.8466 26.0989 23.8466H6.10645C5.52395 23.8466 5.05176 24.3188 5.05176 24.9013C5.05176 25.4838 5.52395 25.9559 6.10645 25.9559H26.0989C26.6815 25.9559 27.1536 25.4838 27.1536 24.9013ZM13.6528 34.1746C13.6528 33.5921 13.1806 33.1199 12.5981 33.1199H6.10645C5.52395 33.1199 5.05176 33.5921 5.05176 34.1746C5.05176 34.7571 5.52395 35.2293 6.10645 35.2293H12.5981C13.1806 35.2293 13.6528 34.7571 13.6528 34.1746Z" fill="#96A9B2"/>
<path d="M36.8316 10.9784C35.3004 9.44719 33.5536 8.71157 32.93 9.33524L28.7129 13.5523L34.2577 19.0971L38.4748 14.88C39.0984 14.2563 38.3627 12.5095 36.8316 10.9784Z" fill="#FF6E83"/>
<path d="M34.1585 13.6514C32.4116 11.9044 30.4186 11.0651 29.7071 11.7767L25.3887 16.0951L31.7148 22.4213L36.0333 18.1028C36.7448 17.3913 35.9054 15.3982 34.1585 13.6514Z" fill="#BFBCAF"/>
<path d="M17.5054 33.1726L13.7018 34.8269C13.636 34.8556 13.5652 34.871 13.4934 34.8722C13.4217 34.8735 13.3503 34.8606 13.2836 34.8343C13.2168 34.808 13.1558 34.7688 13.1042 34.719C13.0525 34.6691 13.0112 34.6096 12.9826 34.5437C12.9528 34.4749 12.9375 34.4007 12.9375 34.3257C12.9375 34.2507 12.9528 34.1766 12.9826 34.1077L14.637 30.3041C15.1171 29.2001 16.4014 28.6944 17.5054 29.1746C18.6094 29.6548 19.1151 30.9391 18.6349 32.043C18.4065 32.5682 17.9917 32.9599 17.5054 33.1726Z" fill="#2B2622"/>
<path d="M33.5381 20.5848C33.542 20.579 33.5462 20.5733 33.5499 20.5675C34.0986 19.7813 33.2591 17.8886 31.5902 16.2197C29.9213 14.5508 28.0288 13.7114 27.2426 14.26C27.2366 14.2638 27.2309 14.2679 27.2252 14.2719C27.2181 14.2772 27.2108 14.2821 27.2039 14.2876C27.1845 14.3025 27.1656 14.3183 27.1478 14.336L17.1119 24.3719C17.1119 24.3719 14.2727 31.3978 15.3425 32.4675C16.4122 33.5372 23.4381 30.6981 23.4381 30.6981L33.474 20.6622C33.4917 20.6444 33.5076 20.6255 33.5224 20.6061C33.5278 20.5993 33.5328 20.5919 33.5381 20.5848Z" fill="#FFD469"/>
<path d="M17.1117 24.3721L16.8888 25.7611C16.856 25.9654 17.0329 26.1418 17.2371 26.1084L18.2325 25.9458C18.429 25.9137 18.6027 26.0767 18.5832 26.2749L18.4723 27.3985C18.4678 27.4445 18.4738 27.491 18.49 27.5343C18.5062 27.5777 18.5321 27.6168 18.5657 27.6486C18.5993 27.6803 18.6398 27.704 18.6839 27.7178C18.7281 27.7315 18.7749 27.735 18.8206 27.7279L19.8266 27.5719C20.0323 27.54 20.2082 27.72 20.1716 27.925L19.9995 28.8875C19.964 29.0857 20.1281 29.2628 20.3285 29.2425L21.4607 29.1283C21.5055 29.1238 21.5507 29.1293 21.5931 29.1444C21.6355 29.1595 21.674 29.1839 21.7058 29.2157C21.7376 29.2476 21.7619 29.2861 21.7769 29.3285C21.792 29.3709 21.7974 29.4161 21.7929 29.4609L21.6761 30.6032C21.6561 30.7997 21.8263 30.9627 22.0218 30.934L23.4626 30.7229L15.3424 34.1207C15.9902 33.4729 14.3129 31.7956 13.665 32.4433L17.1117 24.3721Z" fill="#E5AA6E"/>
<path d="M19.1955 24.7388C19.1207 24.7388 19.0476 24.7166 18.9854 24.675C18.9232 24.6335 18.8748 24.5744 18.8462 24.5053C18.8176 24.4362 18.8101 24.3602 18.8246 24.2868C18.8392 24.2135 18.8752 24.1461 18.928 24.0932L27.3019 15.7193C27.3733 15.6509 27.4687 15.6132 27.5676 15.6143C27.6665 15.6154 27.761 15.6551 27.831 15.7251C27.9009 15.795 27.9406 15.8895 27.9417 15.9884C27.9428 16.0873 27.9051 16.1827 27.8367 16.2541L19.4628 24.628C19.4277 24.6632 19.3861 24.6911 19.3402 24.7101C19.2943 24.7291 19.2451 24.7389 19.1955 24.7388ZM21.602 26.7673L29.9759 18.3934C30.0443 18.3219 30.082 18.2265 30.0809 18.1276C30.0799 18.0287 30.0401 17.9342 29.9702 17.8643C29.9002 17.7943 29.8057 17.7546 29.7068 17.7535C29.6079 17.7524 29.5125 17.7901 29.4411 17.8585L21.0672 26.2324C20.9988 26.3039 20.9611 26.3992 20.9622 26.4981C20.9632 26.597 21.003 26.6916 21.0729 26.7615C21.1429 26.8314 21.2374 26.8712 21.3363 26.8723C21.4352 26.8734 21.5306 26.8357 21.602 26.7673ZM23.7412 28.9064L32.1151 20.5325C32.1835 20.4611 32.2212 20.3657 32.2201 20.2668C32.219 20.1679 32.1792 20.0733 32.1093 20.0034C32.0394 19.9335 31.9448 19.8937 31.8459 19.8926C31.747 19.8916 31.6517 19.9293 31.5802 19.9977L23.2063 28.3716C23.1379 28.443 23.1002 28.5384 23.1013 28.6373C23.1024 28.7362 23.1421 28.8307 23.2121 28.9006C23.282 28.9706 23.3766 29.0103 23.4754 29.0114C23.5743 29.0125 23.6697 28.9748 23.7412 28.9064Z" fill="#FFB636"/>
<path d="M22.7818 4.32137H10.5763C9.94734 4.32137 9.4375 3.81152 9.4375 3.18262V1.42879C9.4375 0.799883 9.94734 0.290039 10.5763 0.290039H22.7818C23.4107 0.290039 23.9205 0.799883 23.9205 1.42879V3.18262C23.9205 3.81152 23.4107 4.32137 22.7818 4.32137Z" fill="#B9C5C6"/>
</svg>
