<svg width="40" height="40" viewBox="0 0 40 40" fill="none" xmlns="http://www.w3.org/2000/svg">
<g clip-path="url(#clip0_734_821)">
<path d="M19.9118 37.9886C29.7718 37.9886 37.765 29.9955 37.765 20.1354C37.765 10.2754 29.7718 2.28223 19.9118 2.28223C10.0517 2.28223 2.05859 10.2754 2.05859 20.1354C2.05859 29.9955 10.0517 37.9886 19.9118 37.9886Z" fill="url(#paint0_linear_734_821)"/>
<path d="M30.0476 20.1361C30.0476 25.7336 25.5099 30.2713 19.9124 30.2713C14.3149 30.2713 9.88209 25.7326 9.77725 20.1361C9.67318 14.5812 13.9585 10.1468 19.9124 10.001C25.5082 9.86388 30.0476 14.5386 30.0476 20.1361Z" fill="url(#paint1_linear_734_821)"/>
<path d="M19.9119 39.5212C9.2227 39.5212 0.526367 30.8249 0.526367 20.1357C0.526367 9.44633 9.2227 0.75 19.9119 0.75C30.6011 0.75 39.2975 9.44633 39.2975 20.1357C39.2975 30.8249 30.6011 39.5212 19.9119 39.5212ZM19.9119 4.41555C11.2438 4.41555 4.19184 11.4676 4.19184 20.1357C4.19184 28.8038 11.2438 35.8558 19.9119 35.8558C28.58 35.8558 35.6319 28.8038 35.6319 20.1357C35.6319 11.4676 28.58 4.41555 19.9119 4.41555Z" fill="url(#paint2_linear_734_821)"/>
<path d="M19.9116 31.8031C13.4914 31.8031 8.36663 26.6907 8.24437 20.1642C8.12257 13.6618 13.1223 8.63373 19.8741 8.46842C26.2973 8.3074 31.5793 13.6068 31.5793 20.1355C31.5793 26.569 26.3452 31.8031 19.9116 31.8031ZM20.1271 12.4008C20.0669 12.4008 20.0059 12.4017 19.9452 12.4031C15.4378 12.5134 12.0992 15.8265 12.1795 20.1097C12.2609 24.4597 15.6573 27.8673 19.9115 27.8673C24.175 27.8673 27.6434 24.3988 27.6434 20.1354C27.6435 15.8705 24.2716 12.4008 20.1271 12.4008Z" fill="url(#paint3_linear_734_821)"/>
<path d="M19.9125 23.3084C21.6645 23.3084 23.0848 21.8881 23.0848 20.1361C23.0848 18.3841 21.6645 16.9639 19.9125 16.9639C18.1605 16.9639 16.7402 18.3841 16.7402 20.1361C16.7402 21.8881 18.1605 23.3084 19.9125 23.3084Z" fill="url(#paint4_linear_734_821)"/>
<path d="M22.7118 18.0559L21.8572 17.2012L19.4647 19.5936L19.4651 19.5941C19.4618 19.5973 19.4582 19.6 19.4549 19.6033C19.398 19.6592 19.3528 19.7259 19.3218 19.7994C19.2909 19.8729 19.2747 19.9519 19.2744 20.0316C19.2741 20.1114 19.2896 20.1905 19.32 20.2642C19.3503 20.338 19.395 20.405 19.4514 20.4614C19.5078 20.5178 19.5749 20.5625 19.6486 20.5929C19.7224 20.6233 19.8014 20.6388 19.8812 20.6384C19.961 20.6381 20.0399 20.622 20.1134 20.591C20.187 20.5601 20.2536 20.5148 20.3096 20.458C20.3129 20.4547 20.3156 20.4511 20.3188 20.4477L20.3193 20.4482L22.7118 18.0559Z" fill="url(#paint5_linear_734_821)"/>
<path d="M34.1893 5.76271C37.1563 -0.67237 31.4966 -3.0612 30.5406 7.7045L22.2457 15.0941C22.1877 15.1394 22.1323 15.1881 22.0799 15.2398C22.0767 15.243 22.0741 15.2466 22.0708 15.2499L22.0644 15.2555L22.0651 15.2561C21.3539 15.9842 21.3583 17.1504 22.0798 17.8719C22.8015 18.5936 23.9677 18.5979 24.6957 17.8867L24.6963 17.8873L24.7019 17.8811C24.7052 17.8779 24.7087 17.8752 24.7119 17.8719C24.7637 17.8196 24.8124 17.7642 24.8577 17.7061L32.2473 9.41122C43.0132 8.45536 40.6244 2.79568 34.1893 5.76271Z" fill="url(#paint6_linear_734_821)"/>
</g>
<defs>
<linearGradient id="paint0_linear_734_821" x1="0.5" y1="39.5" x2="39.5" y2="0.5" gradientUnits="userSpaceOnUse">
<stop stop-color="#00558A"/>
<stop offset="1" stop-color="#001624"/>
</linearGradient>
<linearGradient id="paint1_linear_734_821" x1="8.89051" y1="31.1294" x2="31.0338" y2="8.98733" gradientUnits="userSpaceOnUse">
<stop stop-color="#00558A"/>
<stop offset="1" stop-color="#001624"/>
</linearGradient>
<linearGradient id="paint2_linear_734_821" x1="0.500002" y1="39.5" x2="39.5" y2="0.5" gradientUnits="userSpaceOnUse">
<stop stop-color="#007ACC"/>
<stop offset="1" stop-color="#003D66"/>
</linearGradient>
<linearGradient id="paint3_linear_734_821" x1="8.22632" y1="31.7903" x2="31.7023" y2="8.31543" gradientUnits="userSpaceOnUse">
<stop stop-color="#007ACC"/>
<stop offset="1" stop-color="#003D66"/>
</linearGradient>
<linearGradient id="paint4_linear_734_821" x1="16.7359" y1="23.3049" x2="23.1179" y2="16.9229" gradientUnits="userSpaceOnUse">
<stop stop-color="#007ACC"/>
<stop offset="1" stop-color="#003D66"/>
</linearGradient>
<linearGradient id="paint5_linear_734_821" x1="19.3124" y1="20.6151" x2="22.3518" y2="17.5814" gradientUnits="userSpaceOnUse">
<stop stop-color="#00A3FF"/>
<stop offset="1" stop-color="#006299"/>
</linearGradient>
<linearGradient id="paint6_linear_734_821" x1="21.7357" y1="18.2933" x2="37.7711" y2="2.28856" gradientUnits="userSpaceOnUse">
<stop stop-color="#00A3FF"/>
<stop offset="1" stop-color="#006299"/>
</linearGradient>
<clipPath id="clip0_734_821">
<rect width="40" height="40" fill="white"/>
</clipPath>
</defs>
</svg>
