<svg width="40" height="40" viewBox="0 0 40 40" fill="none" xmlns="http://www.w3.org/2000/svg">
<path d="M20.0746 19.5362L0.375977 33.3988V12.4689C0.375977 10.4288 2.02941 8.77539 4.06949 8.77539H36.0799C38.12 8.77539 39.7734 10.4288 39.7734 12.4689V33.3988L20.0746 19.5362Z" fill="#007ACC"/>
<path d="M39.8333 33.5254C39.9833 33.1201 22.762 20.1167 22.762 20.1167C20.6061 18.5257 19.4721 18.5007 17.3401 20.1167C17.3401 20.1167 0.143906 33.1096 0.288672 33.5094L0.285156 33.5123C0.286875 33.5158 0.289844 33.5182 0.292187 33.5214C0.437997 33.9189 0.650143 34.2888 0.919609 34.6153C1.03344 34.7534 1.17055 34.8689 1.3025 34.9892L1.29609 34.9942C1.30656 35.0035 1.32062 35.0079 1.33109 35.0172C1.89023 35.516 2.59523 35.8389 3.37852 35.9312C3.39078 35.9327 3.4007 35.9391 3.41297 35.9406H3.46023C3.5793 35.952 3.6925 35.9806 3.81453 35.9806H36.3258C37.9267 35.9806 39.283 34.9738 39.8217 33.5626C39.8281 33.5521 39.838 33.5445 39.8439 33.5337L39.8333 33.5254Z" fill="url(#paint0_linear_734_839)"/>
<path d="M0.605469 11.1071L17.424 24.3171C19.5467 25.8836 20.6632 25.9083 22.7623 24.3171L39.5545 11.1281C39.5545 11.1281 39.4977 10.6008 38.7139 9.6691C37.9302 8.73738 37.2749 8.82324 36.475 8.7373L3.67523 8.73848C2.87766 8.82324 1.93602 9.22715 1.43867 9.6691C0.94125 10.111 0.605469 11.1071 0.605469 11.1071Z" fill="url(#paint1_linear_734_839)"/>
<defs>
<linearGradient id="paint0_linear_734_839" x1="40" y1="9" x2="-1.1682e-06" y2="36" gradientUnits="userSpaceOnUse">
<stop stop-color="#001624"/>
<stop offset="1" stop-color="#00558A"/>
</linearGradient>
<linearGradient id="paint1_linear_734_839" x1="1.20612e-07" y1="36" x2="40" y2="9" gradientUnits="userSpaceOnUse">
<stop stop-color="#00A3FF"/>
<stop offset="1" stop-color="#006299"/>
</linearGradient>
</defs>
</svg>
