<svg width="97" height="93" viewBox="0 0 97 93" fill="none" xmlns="http://www.w3.org/2000/svg">
<g filter="url(#filter0_bdi_417_2316)">
<rect x="4" y="4" width="85" height="80.5263" rx="11" fill="#D9D9D9" fill-opacity="0.02" shape-rendering="crispEdges"/>
</g>
<g filter="url(#filter1_bdi_417_2316)">
<path d="M38.7243 24.8772C40.0204 24.8772 41.0676 25.9184 41.0676 27.2072V29.5373H50.4411V27.2072C50.4411 25.9184 51.4882 24.8772 52.7844 24.8772C54.0806 24.8772 55.1278 25.9184 55.1278 27.2072V29.5373H58.6428C60.5834 29.5373 62.1578 31.1028 62.1578 33.0324V36.5274H29.3508V33.0324C29.3508 31.1028 30.9253 29.5373 32.8659 29.5373H36.3809V27.2072C36.3809 25.9184 37.4281 24.8772 38.7243 24.8772ZM29.3508 38.8575H62.1578V58.6628C62.1578 60.5924 60.5834 62.1579 58.6428 62.1579H32.8659C30.9253 62.1579 29.3508 60.5924 29.3508 58.6628V38.8575ZM34.0375 44.6826V47.0126C34.0375 47.6534 34.5648 48.1776 35.2092 48.1776H37.5526C38.197 48.1776 38.7243 47.6534 38.7243 47.0126V44.6826C38.7243 44.0418 38.197 43.5175 37.5526 43.5175H35.2092C34.5648 43.5175 34.0375 44.0418 34.0375 44.6826ZM43.411 44.6826V47.0126C43.411 47.6534 43.9382 48.1776 44.5827 48.1776H46.926C47.5704 48.1776 48.0977 47.6534 48.0977 47.0126V44.6826C48.0977 44.0418 47.5704 43.5175 46.926 43.5175H44.5827C43.9382 43.5175 43.411 44.0418 43.411 44.6826ZM53.9561 43.5175C53.3117 43.5175 52.7844 44.0418 52.7844 44.6826V47.0126C52.7844 47.6534 53.3117 48.1776 53.9561 48.1776H56.2995C56.9439 48.1776 57.4711 47.6534 57.4711 47.0126V44.6826C57.4711 44.0418 56.9439 43.5175 56.2995 43.5175H53.9561ZM34.0375 54.0027V56.3328C34.0375 56.9735 34.5648 57.4978 35.2092 57.4978H37.5526C38.197 57.4978 38.7243 56.9735 38.7243 56.3328V54.0027C38.7243 53.362 38.197 52.8377 37.5526 52.8377H35.2092C34.5648 52.8377 34.0375 53.362 34.0375 54.0027ZM44.5827 52.8377C43.9382 52.8377 43.411 53.362 43.411 54.0027V56.3328C43.411 56.9735 43.9382 57.4978 44.5827 57.4978H46.926C47.5704 57.4978 48.0977 56.9735 48.0977 56.3328V54.0027C48.0977 53.362 47.5704 52.8377 46.926 52.8377H44.5827ZM52.7844 54.0027V56.3328C52.7844 56.9735 53.3117 57.4978 53.9561 57.4978H56.2995C56.9439 57.4978 57.4711 56.9735 57.4711 56.3328V54.0027C57.4711 53.362 56.9439 52.8377 56.2995 52.8377H53.9561C53.3117 52.8377 52.7844 53.362 52.7844 54.0027Z" fill="url(#paint0_linear_417_2316)" shape-rendering="crispEdges"/>
</g>
<defs>
<filter id="filter0_bdi_417_2316" x="0" y="0" width="97" height="92.5264" filterUnits="userSpaceOnUse" color-interpolation-filters="sRGB">
<feFlood flood-opacity="0" result="BackgroundImageFix"/>
<feGaussianBlur in="BackgroundImageFix" stdDeviation="2"/>
<feComposite in2="SourceAlpha" operator="in" result="effect1_backgroundBlur_417_2316"/>
<feColorMatrix in="SourceAlpha" type="matrix" values="0 0 0 0 0 0 0 0 0 0 0 0 0 0 0 0 0 0 127 0" result="hardAlpha"/>
<feOffset dx="2" dy="2"/>
<feGaussianBlur stdDeviation="3"/>
<feComposite in2="hardAlpha" operator="out"/>
<feColorMatrix type="matrix" values="0 0 0 0 0 0 0 0 0 0 0 0 0 0 0 0 0 0 0.15 0"/>
<feBlend mode="normal" in2="effect1_backgroundBlur_417_2316" result="effect2_dropShadow_417_2316"/>
<feBlend mode="normal" in="SourceGraphic" in2="effect2_dropShadow_417_2316" result="shape"/>
<feColorMatrix in="SourceAlpha" type="matrix" values="0 0 0 0 0 0 0 0 0 0 0 0 0 0 0 0 0 0 127 0" result="hardAlpha"/>
<feMorphology radius="2" operator="dilate" in="SourceAlpha" result="effect3_innerShadow_417_2316"/>
<feOffset dx="2"/>
<feGaussianBlur stdDeviation="5"/>
<feComposite in2="hardAlpha" operator="arithmetic" k2="-1" k3="1"/>
<feColorMatrix type="matrix" values="0 0 0 0 1 0 0 0 0 1 0 0 0 0 1 0 0 0 0.15 0"/>
<feBlend mode="normal" in2="shape" result="effect3_innerShadow_417_2316"/>
</filter>
<filter id="filter1_bdi_417_2316" x="25.3508" y="20.8772" width="40.807" height="45.2808" filterUnits="userSpaceOnUse" color-interpolation-filters="sRGB">
<feFlood flood-opacity="0" result="BackgroundImageFix"/>
<feGaussianBlur in="BackgroundImageFix" stdDeviation="2"/>
<feComposite in2="SourceAlpha" operator="in" result="effect1_backgroundBlur_417_2316"/>
<feColorMatrix in="SourceAlpha" type="matrix" values="0 0 0 0 0 0 0 0 0 0 0 0 0 0 0 0 0 0 127 0" result="hardAlpha"/>
<feOffset dy="2"/>
<feGaussianBlur stdDeviation="1"/>
<feComposite in2="hardAlpha" operator="out"/>
<feColorMatrix type="matrix" values="0 0 0 0 0 0 0 0 0 0 0 0 0 0 0 0 0 0 0.15 0"/>
<feBlend mode="normal" in2="effect1_backgroundBlur_417_2316" result="effect2_dropShadow_417_2316"/>
<feBlend mode="normal" in="SourceGraphic" in2="effect2_dropShadow_417_2316" result="shape"/>
<feColorMatrix in="SourceAlpha" type="matrix" values="0 0 0 0 0 0 0 0 0 0 0 0 0 0 0 0 0 0 127 0" result="hardAlpha"/>
<feOffset dy="2"/>
<feGaussianBlur stdDeviation="1"/>
<feComposite in2="hardAlpha" operator="arithmetic" k2="-1" k3="1"/>
<feColorMatrix type="matrix" values="0 0 0 0 1 0 0 0 0 1 0 0 0 0 1 0 0 0 0.15 0"/>
<feBlend mode="normal" in2="shape" result="effect3_innerShadow_417_2316"/>
</filter>
<linearGradient id="paint0_linear_417_2316" x1="45.7543" y1="24.8772" x2="45.7543" y2="62.1579" gradientUnits="userSpaceOnUse">
<stop stop-color="#00A3FF"/>
<stop offset="1" stop-color="#00A3FF" stop-opacity="0.25"/>
</linearGradient>
</defs>
</svg>
