<svg width="40" height="40" viewBox="0 0 40 40" fill="none" xmlns="http://www.w3.org/2000/svg">
<g clip-path="url(#clip0_734_843)">
<path d="M16.0042 24.1994L16.0564 24.3359C16.0726 24.38 16.0972 24.439 16.1182 24.5012L16.194 24.7195C16.2237 24.803 16.2479 24.8874 16.2795 24.9851C16.3097 25.0815 16.3454 25.1894 16.3733 25.2955L16.471 25.6447C16.5032 25.7665 16.5302 25.8887 16.5628 26.0218C16.7023 26.5966 16.8015 27.1805 16.8595 27.7691C16.8928 28.0824 16.9069 28.3947 16.9139 28.7158C16.9143 29.0305 16.9068 29.3532 16.8773 29.6684C16.8484 29.9819 16.8008 30.2934 16.7347 30.6012C16.6685 30.9033 16.581 31.2004 16.4729 31.4902C16.2575 32.0647 15.9554 32.5957 15.563 33.065C15.3689 33.3018 15.142 33.513 14.9172 33.7316C14.6893 33.9471 14.456 34.1626 14.2125 34.3715C13.72 34.7989 13.2056 35.2001 12.6711 35.5735C12.1314 35.953 11.5638 36.3046 10.9815 36.6272C10.6898 36.7872 10.3943 36.9399 10.095 37.0854C9.79679 37.2286 9.49508 37.3645 9.1902 37.4929C8.58207 37.7466 7.96934 37.9669 7.36184 38.1493C6.77535 38.3264 6.18049 38.4746 5.57941 38.5931C4.42988 38.8223 3.3748 38.9163 2.59059 38.9364L2.3102 38.9412L2.0584 38.941L1.65074 38.9301L1.38941 38.9148L1.29707 38.9069L1.2891 38.8145L1.27379 38.5532L1.26293 38.1455L1.2627 37.8937L1.26754 37.6133C1.28762 36.8291 1.38152 35.774 1.61082 34.6245C1.7294 34.0234 1.87749 33.4286 2.05457 32.8421C2.23699 32.2346 2.45723 31.6218 2.7109 31.0137C2.83939 30.7089 2.97529 30.4071 3.11848 30.1089C3.26379 29.8108 3.41613 29.5143 3.57668 29.2224C3.89926 28.6401 4.25082 28.0725 4.63035 27.5328C5.00376 26.9983 5.40497 26.4839 5.8323 25.9915C6.04121 25.748 6.25668 25.5146 6.47223 25.2867C6.6909 25.0619 6.90207 24.8351 7.13887 24.6409C7.60824 24.2485 8.1391 23.9464 8.71363 23.731C9.00345 23.623 9.30051 23.5355 9.60262 23.4692C9.91044 23.4031 10.2219 23.3555 10.5354 23.3266C10.8507 23.2972 11.1735 23.2896 11.4881 23.2901C11.8092 23.2969 12.1214 23.3112 12.4347 23.3444C13.0234 23.4024 13.6073 23.5015 14.1821 23.6412C14.3151 23.6737 14.4373 23.7008 14.5591 23.733L14.9083 23.8306C15.0144 23.8587 15.1224 23.8943 15.2187 23.9244C15.3165 23.956 15.4008 23.9802 15.4843 24.0099L15.7027 24.0858C15.7648 24.1068 15.8239 24.1313 15.8679 24.1476C15.9577 24.1815 16.0042 24.1994 16.0042 24.1994Z" fill="url(#paint0_linear_734_843)"/>
<path d="M39.5041 1.3961L39.5101 1.44587C39.5138 1.4786 39.521 1.52907 39.5262 1.59133C39.5364 1.71579 39.5596 1.9086 39.5706 2.14079C39.6059 2.61844 39.6297 3.29087 39.613 4.09985C39.5969 4.9093 39.5398 5.85485 39.4162 6.88126C39.3886 7.1411 39.3491 7.39837 39.311 7.66571C39.2756 7.93579 39.2252 8.19962 39.1792 8.4761C39.0847 9.02665 38.9667 9.58688 38.8305 10.1584C38.5468 11.3444 38.1866 12.5109 37.752 13.6503C37.3037 14.8238 36.7658 15.996 36.1352 17.1347C35.5037 18.2724 34.7854 19.3822 33.9825 20.437C33.1807 21.4929 32.2955 22.4948 31.3457 23.4322C30.3959 24.3696 29.3829 25.2437 28.3185 26.037C28.0523 26.2352 27.7846 26.4301 27.5108 26.6166C27.2401 26.8061 26.9634 26.9873 26.6877 27.1669C26.1337 27.5233 25.5679 27.8568 24.9962 28.1698C23.8709 28.7854 22.7049 29.3238 21.5065 29.7812C20.3677 30.2147 19.2028 30.5763 18.0187 30.8638C17.4484 31.0013 16.8912 31.1222 16.3415 31.2176L15.9369 31.2905C15.8029 31.3134 15.6669 31.3323 15.5348 31.3531L15.143 31.4128L14.7544 31.4623C13.7336 31.5914 12.7943 31.6547 11.9908 31.6768C11.1881 31.6998 10.5195 31.6799 10.0473 31.65C9.81749 31.6413 9.62592 31.6193 9.50296 31.6106C9.44132 31.6061 9.39124 31.5993 9.35889 31.596L9.3096 31.5906C8.936 31.5489 8.65264 31.2523 8.6128 30.8938L8.60733 30.8445C8.60405 30.8122 8.59725 30.7621 8.59272 30.7005C8.58405 30.5775 8.56202 30.386 8.55335 30.1561C8.5235 29.6839 8.50366 29.0154 8.52655 28.2127C8.54866 27.4091 8.61194 26.4699 8.74108 25.449L8.79053 25.0604L8.8503 24.6686C8.871 24.5366 8.88999 24.4006 8.91288 24.2665L8.98577 23.8619C9.08116 23.3123 9.2021 22.755 9.33952 22.1848C9.62695 21.0006 9.98855 19.8357 10.4222 18.697C10.8796 17.4985 11.418 16.3326 12.0336 15.2072C12.3466 14.6356 12.6801 14.0698 13.0365 13.5157C13.216 13.24 13.3973 12.9634 13.5868 12.6926C13.7733 12.4188 13.9682 12.1511 14.1664 11.8849C14.9597 10.8206 15.8337 9.80743 16.7712 8.85774C17.7085 7.90797 18.7105 7.02274 19.7663 6.22094C20.8212 5.41813 21.9309 4.69969 23.0687 4.06821C24.2073 3.43766 25.3796 2.89969 26.553 2.45141C27.6925 2.01686 28.8589 1.6566 30.045 1.3729C30.6165 1.23672 31.1767 1.11876 31.7273 1.02422C32.0037 0.978209 32.2676 0.927819 32.5376 0.892428C32.805 0.854303 33.0622 0.814772 33.3221 0.787194C34.3485 0.6636 35.294 0.606569 36.1035 0.590397C36.9125 0.573756 37.5849 0.597428 38.0626 0.632819C38.2948 0.643834 38.4876 0.667115 38.612 0.677272C38.6743 0.682428 38.7248 0.689537 38.7575 0.693287L38.8073 0.699303C39.1798 0.744225 39.4612 1.03946 39.5041 1.3961Z" fill="url(#paint1_linear_734_843)"/>
<path d="M6.0047 14.1996L0.339542 19.8648C-0.0520206 20.2563 0.225323 20.9259 0.779073 20.9259H5.5404C5.70525 20.9259 5.86337 20.9913 5.97993 21.1079L9.07149 24.1995L14.0927 14.0176H6.44423C6.3626 14.0176 6.28177 14.0336 6.20635 14.0649C6.13093 14.0961 6.06241 14.1419 6.0047 14.1996Z" fill="url(#paint2_linear_734_843)"/>
<path d="M16.8877 30.6716L19.9793 33.7631C20.0958 33.8797 20.1613 34.0378 20.1613 34.2027V38.964C20.1613 39.5177 20.8308 39.7951 21.2224 39.4035L26.8875 33.7384C27.0041 33.6218 27.0696 33.4637 27.0696 33.2988V25.6504L16.8877 30.6716Z" fill="url(#paint3_linear_734_843)"/>
<path d="M18.9922 21.2112L19.0378 21.3344C19.0632 21.411 19.0974 21.5212 19.121 21.644C19.1769 21.8983 19.1954 22.2079 19.0943 22.4771C19.0445 22.6124 18.9523 22.7252 18.8655 22.8616L18.577 23.2956L17.8844 24.3356C17.6094 24.7431 17.332 25.149 17.0522 25.5533C16.7405 26.0031 16.425 26.4503 16.1058 26.8949L15.5972 27.5948L15.0687 28.3046C14.7102 28.7793 14.3433 29.2589 13.9703 29.7322C13.6009 30.2039 13.2268 30.6719 12.8481 31.1362C12.4746 31.5959 12.1083 32.0496 11.7479 32.4826L11.219 33.1226C11.0439 33.3294 10.8846 33.5437 10.6996 33.7224C10.5158 33.9022 10.3036 34.044 10.0599 34.1424C9.81825 34.2429 9.55372 34.309 9.29794 34.3708C8.81578 34.485 8.32836 34.5758 7.83739 34.6428C7.61052 34.6738 7.39356 34.6982 7.18864 34.7165C6.98481 34.7359 6.78763 34.7437 6.61481 34.7561C6.44067 34.7671 6.27442 34.7662 6.13552 34.7711C5.9945 34.7739 5.86755 34.7693 5.76817 34.7691C5.66669 34.7669 5.58559 34.7618 5.53255 34.76L5.44927 34.7544L5.44364 34.6711C5.44184 34.618 5.43677 34.5369 5.4345 34.4355C5.43434 34.3361 5.42974 34.2092 5.43255 34.0681C5.43739 33.9291 5.43653 33.7629 5.44755 33.5888C5.45989 33.416 5.4677 33.2188 5.48708 33.015C5.50536 32.8101 5.52974 32.5931 5.56083 32.3662C5.62779 31.8753 5.71857 31.3878 5.83286 30.9057C5.89458 30.65 5.96067 30.3855 6.06122 30.1437C6.15966 29.8999 6.30138 29.6879 6.48122 29.504C6.65997 29.3191 6.87427 29.1598 7.08106 28.9847L7.72106 28.4558C8.15411 28.0954 8.60778 27.729 9.06755 27.3556C9.52653 26.9814 9.99669 26.6051 10.4715 26.2334C10.9448 25.8603 11.4244 25.4935 11.8991 25.135L12.6089 24.6065L13.3088 24.0979C13.7534 23.7788 14.2006 23.4633 14.6504 23.1515C15.08 22.8537 15.4893 22.5753 15.8681 22.3193L16.9081 21.6267L17.3421 21.3382C17.4784 21.2514 17.5912 21.1592 17.7266 21.1094C17.9958 21.0083 18.3054 21.0268 18.5597 21.0827C18.6825 21.1063 18.7927 21.1405 18.8693 21.1659L18.9922 21.2112Z" fill="url(#paint4_linear_734_843)"/>
<path d="M28.2902 16.145C28.2902 18.4823 26.3955 20.377 24.0582 20.377C21.7209 20.377 19.8262 18.4823 19.8262 16.145C19.8262 13.8077 21.7209 11.913 24.0582 11.913C26.3955 11.913 28.2902 13.8077 28.2902 16.145ZM30.4175 7.0918C28.9297 7.0918 27.7236 8.29789 27.7236 9.7857C27.7236 11.2735 28.9297 12.4796 30.4175 12.4796C31.9053 12.4796 33.1114 11.2735 33.1114 9.7857C33.1114 8.29789 31.9053 7.0918 30.4175 7.0918Z" fill="url(#paint5_linear_734_843)"/>
</g>
<defs>
<linearGradient id="paint0_linear_734_843" x1="0.999999" y1="39" x2="21.5" y2="19.5" gradientUnits="userSpaceOnUse">
<stop stop-color="#00558A"/>
<stop offset="1" stop-color="#001624"/>
</linearGradient>
<linearGradient id="paint1_linear_734_843" x1="12.3342" y1="28.0291" x2="39.8441" y2="0.840015" gradientUnits="userSpaceOnUse">
<stop stop-color="#00A3FF"/>
<stop offset="1" stop-color="#006299"/>
</linearGradient>
<linearGradient id="paint2_linear_734_843" x1="2.92338" y1="22.3729" x2="8.53045" y2="14.4817" gradientUnits="userSpaceOnUse">
<stop stop-color="#00A3FF"/>
<stop offset="1" stop-color="#006299"/>
</linearGradient>
<linearGradient id="paint3_linear_734_843" x1="18.9093" y1="37.0868" x2="26.7149" y2="31.2232" gradientUnits="userSpaceOnUse">
<stop stop-color="#00A3FF"/>
<stop offset="1" stop-color="#006299"/>
</linearGradient>
<linearGradient id="paint4_linear_734_843" x1="8.15877" y1="32.3081" x2="16.1653" y2="24.0757" gradientUnits="userSpaceOnUse">
<stop stop-color="#00A3FF"/>
<stop offset="1" stop-color="#006299"/>
</linearGradient>
<linearGradient id="paint5_linear_734_843" x1="19" y1="21" x2="39" y2="1" gradientUnits="userSpaceOnUse">
<stop stop-color="#00558A"/>
<stop offset="1" stop-color="#001624"/>
</linearGradient>
<clipPath id="clip0_734_843">
<rect width="40" height="40" fill="white"/>
</clipPath>
</defs>
</svg>
