<svg width="85" height="61" viewBox="0 0 85 61" fill="none" xmlns="http://www.w3.org/2000/svg">
<path fill-rule="evenodd" clip-rule="evenodd" d="M15 0C12.2386 0 10 2.23858 10 5V44C10 46.7614 12.2386 49 15 49H80C82.7614 49 85 46.7614 85 44V5C85 2.23858 82.7614 0 80 0H15ZM28.0875 4.89998C27.0727 4.89998 26.25 5.72266 26.25 6.73748C26.25 7.7523 27.0727 8.57498 28.0875 8.57498H28.1625C29.1773 8.57498 30 7.7523 30 6.73748C30 5.72266 29.1773 4.89998 28.1625 4.89998H28.0875ZM21.25 6.73748C21.25 5.72266 22.0727 4.89998 23.0875 4.89998H23.1625C24.1773 4.89998 25 5.72266 25 6.73748C25 7.7523 24.1773 8.57498 23.1625 8.57498H23.0875C22.0727 8.57498 21.25 7.7523 21.25 6.73748ZM18.0875 4.89998C17.0727 4.89998 16.25 5.72266 16.25 6.73748C16.25 7.7523 17.0727 8.57498 18.0875 8.57498H18.1625C19.1773 8.57498 20 7.7523 20 6.73748C20 5.72266 19.1773 4.89998 18.1625 4.89998H18.0875Z" fill="url(#paint0_linear_395_2311)"/>
<g filter="url(#filter0_bi_395_2311)">
<path d="M0 26C0 23.2386 2.23858 21 5 21H55C57.7614 21 60 23.2386 60 26V56C60 58.7614 57.7614 61 55 61H5C2.23858 61 0 58.7614 0 56V26Z" fill="#D9D9D9" fill-opacity="0.1"/>
</g>
<path d="M32.9723 31.049C32.2377 30.8576 31.4728 31.2443 31.2611 31.9082L25.7301 49.4045C25.5183 50.0684 25.9461 50.7597 26.6807 50.951C27.4153 51.1424 28.1802 50.7557 28.3919 50.0918L33.9229 32.5955C34.1347 31.9316 33.7069 31.2403 32.9723 31.049ZM36.4551 35.7394C35.915 36.2276 35.915 37.0204 36.4551 37.5086L40.3139 41L36.4508 44.4914C35.9106 44.9796 35.9106 45.7724 36.4508 46.2606C36.9909 46.7488 37.8681 46.7488 38.4082 46.2606L43.2479 41.8865C43.788 41.3984 43.788 40.6056 43.2479 40.1174L38.4082 35.7433C37.8681 35.2551 36.9909 35.2551 36.4508 35.7433L36.4551 35.7394ZM23.2022 35.7394C22.6621 35.2512 21.7849 35.2512 21.2448 35.7394L16.4051 40.1135C15.865 40.6016 15.865 41.3944 16.4051 41.8826L21.2448 46.2567C21.7849 46.7449 22.6621 46.7449 23.2022 46.2567C23.7424 45.7685 23.7424 44.9757 23.2022 44.4875L19.3391 41L23.2022 37.5086C23.7424 37.0204 23.7424 36.2276 23.2022 35.7394Z" fill="white"/>
<defs>
<filter id="filter0_bi_395_2311" x="-4" y="17" width="68" height="48" filterUnits="userSpaceOnUse" color-interpolation-filters="sRGB">
<feFlood flood-opacity="0" result="BackgroundImageFix"/>
<feGaussianBlur in="BackgroundImageFix" stdDeviation="2"/>
<feComposite in2="SourceAlpha" operator="in" result="effect1_backgroundBlur_395_2311"/>
<feBlend mode="normal" in="SourceGraphic" in2="effect1_backgroundBlur_395_2311" result="shape"/>
<feColorMatrix in="SourceAlpha" type="matrix" values="0 0 0 0 0 0 0 0 0 0 0 0 0 0 0 0 0 0 127 0" result="hardAlpha"/>
<feOffset dy="2"/>
<feGaussianBlur stdDeviation="2"/>
<feComposite in2="hardAlpha" operator="arithmetic" k2="-1" k3="1"/>
<feColorMatrix type="matrix" values="0 0 0 0 1 0 0 0 0 1 0 0 0 0 1 0 0 0 0.15 0"/>
<feBlend mode="normal" in2="shape" result="effect2_innerShadow_395_2311"/>
</filter>
<linearGradient id="paint0_linear_395_2311" x1="85" y1="0" x2="10.9396" y2="50.3812" gradientUnits="userSpaceOnUse">
<stop stop-color="#003366"/>
<stop offset="1" stop-color="#00A3FF"/>
</linearGradient>
</defs>
</svg>
