<svg width="85" height="61" viewBox="0 0 85 61" fill="none" xmlns="http://www.w3.org/2000/svg">
<path fill-rule="evenodd" clip-rule="evenodd" d="M15 0C12.2386 0 10 2.23858 10 5V44C10 46.7614 12.2386 49 15 49H80C82.7614 49 85 46.7614 85 44V5C85 2.23858 82.7614 0 80 0H15ZM28.0875 4.89998C27.0727 4.89998 26.25 5.72266 26.25 6.73748C26.25 7.7523 27.0727 8.57498 28.0875 8.57498H28.1625C29.1773 8.57498 30 7.7523 30 6.73748C30 5.72266 29.1773 4.89998 28.1625 4.89998H28.0875ZM21.25 6.73748C21.25 5.72266 22.0727 4.89998 23.0875 4.89998H23.1625C24.1773 4.89998 25 5.72266 25 6.73748C25 7.7523 24.1773 8.57498 23.1625 8.57498H23.0875C22.0727 8.57498 21.25 7.7523 21.25 6.73748ZM18.0875 4.89998C17.0727 4.89998 16.25 5.72266 16.25 6.73748C16.25 7.7523 17.0727 8.57498 18.0875 8.57498H18.1625C19.1773 8.57498 20 7.7523 20 6.73748C20 5.72266 19.1773 4.89998 18.1625 4.89998H18.0875Z" fill="url(#paint0_linear_395_2334)"/>
<g filter="url(#filter0_bi_395_2334)">
<path d="M0 26C0 23.2386 2.23858 21 5 21H55C57.7614 21 60 23.2386 60 26V56C60 58.7614 57.7614 61 55 61H5C2.23858 61 0 58.7614 0 56V26Z" fill="#D9D9D9" fill-opacity="0.1"/>
<path d="M0 26C0 23.1557 2.30573 20.85 5.15 20.85H55C57.8443 20.85 60.15 23.1557 60.15 26L59.85 26C59.85 23.3214 57.6786 21.15 55 21.15H5C2.23858 21.15 0 23.3214 0 26V26ZM60 61H0H60ZM0 61V21V61ZM55 20.85C57.8443 20.85 60.15 23.1557 60.15 26V55.85C60.15 58.6943 57.8443 61 55 61H55C57.6786 61 59.85 58.7614 59.85 56V26C59.85 23.3214 57.6786 21.15 55 21.15L55 20.85Z" fill="white" fill-opacity="0.2"/>
</g>
<path d="M39.802 37.5091C39.927 37.849 39.8216 38.228 39.552 38.4702L37.8602 40.0096C37.9032 40.3339 37.9267 40.666 37.9267 41.002C37.9267 41.338 37.9032 41.6701 37.8602 41.9943L39.552 43.5337C39.8216 43.7759 39.927 44.1549 39.802 44.4948C39.6301 44.9598 39.423 45.4052 39.1847 45.8349L39.0011 46.1514C38.7432 46.5812 38.4541 46.9875 38.1376 47.3704C37.9071 47.6517 37.5242 47.7455 37.1804 47.6361L35.0042 46.9445C34.4807 47.3469 33.9024 47.6829 33.2851 47.9369L32.7968 50.1678C32.7186 50.5233 32.4451 50.8047 32.0857 50.8633C31.5465 50.9531 30.9917 51 30.4252 51C29.8587 51 29.3039 50.9531 28.7647 50.8633C28.4053 50.8047 28.1318 50.5233 28.0536 50.1678L27.5653 47.9369C26.9479 47.6829 26.3697 47.3469 25.8462 46.9445L23.6739 47.64C23.3301 47.7494 22.9472 47.6517 22.7167 47.3743C22.4002 46.9914 22.1111 46.5851 21.8532 46.1553L21.6696 45.8388C21.4312 45.4091 21.2242 44.9637 21.0523 44.4987C20.9272 44.1588 21.0327 43.7798 21.3023 43.5376L22.9941 41.9982C22.9511 41.6701 22.9276 41.338 22.9276 41.002C22.9276 40.666 22.9511 40.3339 22.9941 40.0096L21.3023 38.4702C21.0327 38.228 20.9272 37.849 21.0523 37.5091C21.2242 37.0441 21.4312 36.5988 21.6696 36.169L21.8532 35.8525C22.1111 35.4227 22.4002 35.0164 22.7167 34.6335C22.9472 34.3522 23.3301 34.2584 23.6739 34.3678L25.8501 35.0594C26.3736 34.657 26.9519 34.321 27.5692 34.067L28.0575 31.8361C28.1357 31.4806 28.4092 31.1993 28.7686 31.1407C29.3078 31.0469 29.8626 31 30.4291 31C30.9956 31 31.5504 31.0469 32.0896 31.1367C32.449 31.1954 32.7225 31.4767 32.8007 31.8322L33.289 34.0631C33.9063 34.3171 34.4846 34.6531 35.0081 35.0555L37.1843 34.3639C37.5281 34.2545 37.911 34.3522 38.1415 34.6296C38.458 35.0125 38.7471 35.4188 39.005 35.8486L39.1886 36.1651C39.427 36.5948 39.634 37.0402 39.8059 37.5052L39.802 37.5091ZM30.4291 44.1276C31.2581 44.1276 32.0531 43.7983 32.6392 43.2121C33.2254 42.6259 33.5547 41.8309 33.5547 41.002C33.5547 40.173 33.2254 39.378 32.6392 38.7918C32.0531 38.2056 31.2581 37.8763 30.4291 37.8763C29.6001 37.8763 28.8051 38.2056 28.219 38.7918C27.6328 39.378 27.3035 40.173 27.3035 41.002C27.3035 41.8309 27.6328 42.6259 28.219 43.2121C28.8051 43.7983 29.6001 44.1276 30.4291 44.1276Z" fill="white"/>
<defs>
<filter id="filter0_bi_395_2334" x="-4" y="16.85" width="68.15" height="48.15" filterUnits="userSpaceOnUse" color-interpolation-filters="sRGB">
<feFlood flood-opacity="0" result="BackgroundImageFix"/>
<feGaussianBlur in="BackgroundImageFix" stdDeviation="2"/>
<feComposite in2="SourceAlpha" operator="in" result="effect1_backgroundBlur_395_2334"/>
<feBlend mode="normal" in="SourceGraphic" in2="effect1_backgroundBlur_395_2334" result="shape"/>
<feColorMatrix in="SourceAlpha" type="matrix" values="0 0 0 0 0 0 0 0 0 0 0 0 0 0 0 0 0 0 127 0" result="hardAlpha"/>
<feOffset dy="2"/>
<feGaussianBlur stdDeviation="2"/>
<feComposite in2="hardAlpha" operator="arithmetic" k2="-1" k3="1"/>
<feColorMatrix type="matrix" values="0 0 0 0 1 0 0 0 0 1 0 0 0 0 1 0 0 0 0.25 0"/>
<feBlend mode="normal" in2="shape" result="effect2_innerShadow_395_2334"/>
</filter>
<linearGradient id="paint0_linear_395_2334" x1="85" y1="0" x2="10.9396" y2="50.3812" gradientUnits="userSpaceOnUse">
<stop stop-color="#003366"/>
<stop offset="1" stop-color="#00A3FF"/>
</linearGradient>
</defs>
</svg>
