<svg width="40" height="40" viewBox="0 0 40 40" fill="none" xmlns="http://www.w3.org/2000/svg">
<g clip-path="url(#clip0_812_825)">
<path d="M28.8888 3.7039C28.0551 4.53765 27.5614 5.58304 27.4074 6.66671L20.7408 0L13.3335 7.40741C14.4176 7.56147 15.4625 8.05522 16.2963 8.88897C18.3418 10.9344 18.3418 14.2509 16.2963 16.2965C14.2508 18.3419 10.9344 18.342 8.88897 16.2965C8.05498 15.4627 7.56147 14.4175 7.40733 13.3335L0 20.7407L6.66678 27.4074C5.58264 27.5615 4.53765 28.0553 3.70374 28.889C1.65836 30.9344 1.65828 34.2509 3.70382 36.2963C5.74936 38.3418 9.06576 38.3418 11.1111 36.2964C11.945 35.4626 12.4387 34.4175 12.5928 33.3336L19.2593 40L26.6667 32.5928C25.5825 32.4388 24.5377 31.9452 23.7037 31.1113C21.6582 29.0657 21.6582 25.7494 23.7037 23.7039C25.7492 21.6585 29.0656 21.6583 31.111 23.7039C31.9449 24.5378 32.4385 25.5828 32.5926 26.6667L39.9999 19.2593L33.3334 12.5929C34.4173 12.4388 35.4624 11.9451 36.2962 11.1112C38.3416 9.06576 38.3417 5.74929 36.2962 3.70382C34.2506 1.65836 30.9344 1.65828 28.8888 3.7039Z" fill="#00A3FF"/>
<path d="M26.667 32.593C25.5829 32.439 24.538 31.9455 23.7041 31.1115C21.6585 29.0659 21.6586 25.7496 23.7041 23.7041C25.7496 21.6587 29.066 21.6585 31.1114 23.7041C31.9452 24.538 32.4389 25.583 32.593 26.6669L40.0003 19.2595L33.3338 12.5931C34.4177 12.4391 35.4628 11.9453 36.2966 11.1115C38.3421 9.06604 38.3422 5.74957 36.2966 3.7041L3.7041 36.2965C5.74957 38.342 9.06597 38.342 11.1114 36.2966C11.9453 35.4628 12.439 34.4177 12.5931 33.3338L19.2597 40.0002L26.667 32.593Z" fill="#007ACC"/>
</g>
<defs>
<clipPath id="clip0_812_825">
<rect width="40" height="40" fill="white"/>
</clipPath>
</defs>
</svg>
