<svg width="85" height="61" viewBox="0 0 85 61" fill="none" xmlns="http://www.w3.org/2000/svg">
<path fill-rule="evenodd" clip-rule="evenodd" d="M15 0C12.2386 0 10 2.23858 10 5V44C10 46.7614 12.2386 49 15 49H80C82.7614 49 85 46.7614 85 44V5C85 2.23858 82.7614 0 80 0H15ZM28.0875 4.89998C27.0727 4.89998 26.25 5.72266 26.25 6.73748C26.25 7.7523 27.0727 8.57498 28.0875 8.57498H28.1625C29.1773 8.57498 30 7.7523 30 6.73748C30 5.72266 29.1773 4.89998 28.1625 4.89998H28.0875ZM21.25 6.73748C21.25 5.72266 22.0727 4.89998 23.0875 4.89998H23.1625C24.1773 4.89998 25 5.72266 25 6.73748C25 7.7523 24.1773 8.57498 23.1625 8.57498H23.0875C22.0727 8.57498 21.25 7.7523 21.25 6.73748ZM18.0875 4.89998C17.0727 4.89998 16.25 5.72266 16.25 6.73748C16.25 7.7523 17.0727 8.57498 18.0875 8.57498H18.1625C19.1773 8.57498 20 7.7523 20 6.73748C20 5.72266 19.1773 4.89998 18.1625 4.89998H18.0875Z" fill="url(#paint0_linear_395_2346)"/>
<g filter="url(#filter0_bi_395_2346)">
<path d="M0 26C0 23.2386 2.23858 21 5 21H55C57.7614 21 60 23.2386 60 26V56C60 58.7614 57.7614 61 55 61H5C2.23858 61 0 58.7614 0 56V26Z" fill="#D9D9D9" fill-opacity="0.1"/>
<path d="M0 26C0 23.1557 2.30573 20.85 5.15 20.85H55C57.8443 20.85 60.15 23.1557 60.15 26L59.85 26C59.85 23.3214 57.6786 21.15 55 21.15H5C2.23858 21.15 0 23.3214 0 26V26ZM60 61H0H60ZM0 61V21V61ZM55 20.85C57.8443 20.85 60.15 23.1557 60.15 26V55.85C60.15 58.6943 57.8443 61 55 61H55C57.6786 61 59.85 58.7614 59.85 56V26C59.85 23.3214 57.6786 21.15 55 21.15L55 20.85Z" fill="white" fill-opacity="0.2"/>
</g>
<path d="M27.0408 33.1429C27.0408 31.9598 27.9869 31 29.1531 31H30.5612C31.7274 31 32.6735 31.9598 32.6735 33.1429V48.8571C32.6735 50.0402 31.7274 51 30.5612 51H29.1531C27.9869 51 27.0408 50.0402 27.0408 48.8571V33.1429ZM20 41.7143C20 40.5313 20.9461 39.5714 22.1122 39.5714H23.5204C24.6865 39.5714 25.6327 40.5313 25.6327 41.7143V48.8571C25.6327 50.0402 24.6865 51 23.5204 51H22.1122C20.9461 51 20 50.0402 20 48.8571V41.7143ZM36.1939 33.8571H37.602C38.7682 33.8571 39.7143 34.817 39.7143 36V48.8571C39.7143 50.0402 38.7682 51 37.602 51H36.1939C35.0277 51 34.0816 50.0402 34.0816 48.8571V36C34.0816 34.817 35.0277 33.8571 36.1939 33.8571Z" fill="white"/>
<defs>
<filter id="filter0_bi_395_2346" x="-4" y="16.85" width="68.15" height="48.15" filterUnits="userSpaceOnUse" color-interpolation-filters="sRGB">
<feFlood flood-opacity="0" result="BackgroundImageFix"/>
<feGaussianBlur in="BackgroundImageFix" stdDeviation="2"/>
<feComposite in2="SourceAlpha" operator="in" result="effect1_backgroundBlur_395_2346"/>
<feBlend mode="normal" in="SourceGraphic" in2="effect1_backgroundBlur_395_2346" result="shape"/>
<feColorMatrix in="SourceAlpha" type="matrix" values="0 0 0 0 0 0 0 0 0 0 0 0 0 0 0 0 0 0 127 0" result="hardAlpha"/>
<feOffset dy="2"/>
<feGaussianBlur stdDeviation="2"/>
<feComposite in2="hardAlpha" operator="arithmetic" k2="-1" k3="1"/>
<feColorMatrix type="matrix" values="0 0 0 0 1 0 0 0 0 1 0 0 0 0 1 0 0 0 0.25 0"/>
<feBlend mode="normal" in2="shape" result="effect2_innerShadow_395_2346"/>
</filter>
<linearGradient id="paint0_linear_395_2346" x1="85" y1="0" x2="10.9396" y2="50.3812" gradientUnits="userSpaceOnUse">
<stop stop-color="#003366"/>
<stop offset="1" stop-color="#00A3FF"/>
</linearGradient>
</defs>
</svg>
