<svg width="85" height="61" viewBox="0 0 85 61" fill="none" xmlns="http://www.w3.org/2000/svg">
<path fill-rule="evenodd" clip-rule="evenodd" d="M15 0C12.2386 0 10 2.23858 10 5V44C10 46.7614 12.2386 49 15 49H80C82.7614 49 85 46.7614 85 44V5C85 2.23858 82.7614 0 80 0H15ZM28.0875 4.89998C27.0727 4.89998 26.25 5.72266 26.25 6.73748C26.25 7.7523 27.0727 8.57498 28.0875 8.57498H28.1625C29.1773 8.57498 30 7.7523 30 6.73748C30 5.72266 29.1773 4.89998 28.1625 4.89998H28.0875ZM21.25 6.73748C21.25 5.72266 22.0727 4.89998 23.0875 4.89998H23.1625C24.1773 4.89998 25 5.72266 25 6.73748C25 7.7523 24.1773 8.57498 23.1625 8.57498H23.0875C22.0727 8.57498 21.25 7.7523 21.25 6.73748ZM18.0875 4.89998C17.0727 4.89998 16.25 5.72266 16.25 6.73748C16.25 7.7523 17.0727 8.57498 18.0875 8.57498H18.1625C19.1773 8.57498 20 7.7523 20 6.73748C20 5.72266 19.1773 4.89998 18.1625 4.89998H18.0875Z" fill="url(#paint0_linear_395_2322)"/>
<g filter="url(#filter0_bi_395_2322)">
<path d="M0 26C0 23.2386 2.23858 21 5 21H55C57.7614 21 60 23.2386 60 26V56C60 58.7614 57.7614 61 55 61H5C2.23858 61 0 58.7614 0 56V26Z" fill="#D9D9D9" fill-opacity="0.1"/>
<path d="M0 26C0 23.1557 2.30573 20.85 5.15 20.85H55C57.8443 20.85 60.15 23.1557 60.15 26L59.85 26C59.85 23.3214 57.6786 21.15 55 21.15H5C2.23858 21.15 0 23.3214 0 26V26ZM60 61H0H60ZM0 61V21V61ZM55 20.85C57.8443 20.85 60.15 23.1557 60.15 26V55.85C60.15 58.6943 57.8443 61 55 61H55C57.6786 61 59.85 58.7614 59.85 56V26C59.85 23.3214 57.6786 21.15 55 21.15L55 20.85Z" fill="white" fill-opacity="0.2"/>
</g>
<path d="M21.4507 39.5719H21.0713C20.4776 39.5719 20 39.0943 20 38.5007V32.7872C20 32.3542 20.2589 31.9614 20.6606 31.7962C21.0623 31.6311 21.5221 31.7204 21.8301 32.0284L23.687 33.8852C27.5971 30.0242 33.8954 30.0376 37.7832 33.9299C41.6889 37.8356 41.6889 44.165 37.7832 48.0707C33.8775 51.9764 27.548 51.9764 23.6423 48.0707C23.0844 47.5128 23.0844 46.6066 23.6423 46.0487C24.2003 45.4907 25.1064 45.4907 25.6644 46.0487C28.4542 48.8385 32.9758 48.8385 35.7656 46.0487C38.5554 43.2589 38.5554 38.7372 35.7656 35.9474C32.9892 33.1711 28.5033 33.1577 25.709 35.9028L27.5436 37.7418C27.8516 38.0498 27.9408 38.5096 27.7757 38.9113C27.6105 39.313 27.2177 39.5719 26.7848 39.5719H21.4507Z" fill="white"/>
<defs>
<filter id="filter0_bi_395_2322" x="-4" y="16.85" width="68.15" height="48.15" filterUnits="userSpaceOnUse" color-interpolation-filters="sRGB">
<feFlood flood-opacity="0" result="BackgroundImageFix"/>
<feGaussianBlur in="BackgroundImageFix" stdDeviation="2"/>
<feComposite in2="SourceAlpha" operator="in" result="effect1_backgroundBlur_395_2322"/>
<feBlend mode="normal" in="SourceGraphic" in2="effect1_backgroundBlur_395_2322" result="shape"/>
<feColorMatrix in="SourceAlpha" type="matrix" values="0 0 0 0 0 0 0 0 0 0 0 0 0 0 0 0 0 0 127 0" result="hardAlpha"/>
<feOffset dy="2"/>
<feGaussianBlur stdDeviation="2"/>
<feComposite in2="hardAlpha" operator="arithmetic" k2="-1" k3="1"/>
<feColorMatrix type="matrix" values="0 0 0 0 1 0 0 0 0 1 0 0 0 0 1 0 0 0 0.25 0"/>
<feBlend mode="normal" in2="shape" result="effect2_innerShadow_395_2322"/>
</filter>
<linearGradient id="paint0_linear_395_2322" x1="85" y1="0" x2="10.9396" y2="50.3812" gradientUnits="userSpaceOnUse">
<stop stop-color="#003366"/>
<stop offset="1" stop-color="#00A3FF"/>
</linearGradient>
</defs>
</svg>
