<svg width="40" height="40" viewBox="0 0 40 40" fill="none" xmlns="http://www.w3.org/2000/svg">
<g clip-path="url(#clip0_812_828)">
<path d="M36.6668 3.33333C28.889 0 20.0001 0 20.0001 0C20.0001 0 11.1112 0 3.33344 3.33333C0.000105855 20 3.33344 34.4444 20.0001 40C36.6668 34.4444 40.0001 20 36.6668 3.33333Z" fill="#00558A"/>
<path d="M20.0002 37.6493C7.12466 33.0327 2.17911 22.0349 5.28911 4.93821C12.2924 2.25488 19.9202 2.22266 20.0002 2.22266C20.0791 2.22266 27.7313 2.2671 34.7113 4.93821C37.8213 22.0349 32.8758 33.0327 20.0002 37.6493Z" fill="#00A3FF"/>
<path d="M34.7111 4.93821C27.7311 2.2671 20.0789 2.22266 20 2.22266V37.6493C32.8756 33.0327 37.8211 22.0349 34.7111 4.93821Z" fill="#007ACC"/>
<path fill-rule="evenodd" clip-rule="evenodd" d="M26 10H18L14 21H18L16 30L25 17H20.0048L26 10Z" fill="#00558A"/>
</g>
<defs>
<clipPath id="clip0_812_828">
<rect width="40" height="40" fill="white"/>
</clipPath>
</defs>
</svg>
