<svg width="40" height="40" viewBox="0 0 40 40" fill="none" xmlns="http://www.w3.org/2000/svg">
<g clip-path="url(#clip0_812_888)">
<path d="M5.43348 3.65901L5.43409 3.65962L5.43475 14.8216L5.43475 16.6817L5.35112 16.6817C4.48999 16.6817 3.68052 18.228 2.98054 18.6241V3.0009C3.81587 3.00085 4.65114 3.99732 5.43348 3.65901Z" fill="#007ACC"/>
<path d="M2.98044 3.00116L2.98049 18.6244C1.51535 19.4523 0.526281 19.7033 0.526281 21.5067L0.526282 3.65927C1.30924 3.99818 2.14456 3.00177 2.98044 3.00116Z" fill="#007ACC"/>
<path d="M2.50205 20.3935L3.45898 20.3936L3.46035 1.07753L2.50342 1.07746L2.50205 20.3935Z" fill="#00558A"/>
<path d="M4.28277 1.94258L5.43359 3.6593C4.65124 3.99761 3.81591 4.16737 2.98064 4.16737C2.14477 4.16797 1.30944 3.99821 0.526486 3.6593L1.67791 1.94318L1.67852 1.94258C2.05063 2.19415 2.49843 2.33933 2.98064 2.33927C3.46286 2.33933 3.91065 2.19294 4.28277 1.94258Z" fill="#00558A"/>
<path d="M2.98099 -0.000518421L4.28311 1.94253C3.911 2.19289 3.4632 2.33929 2.98099 2.33923C2.49877 2.33918 2.05098 2.19411 1.67886 1.94253L2.98099 -0.000518421Z" fill="#007ACC"/>
<path d="M28.8238 22.3823L30.5487 20.6574L32.2745 18.9316L34.0003 17.2067L36.1767 15.0303L39.9999 18.8532L25.1461 33.7071L22.3529 36.5002C23.295 35.5582 21.0118 34.9781 21.0118 33.7429C21.0118 32.5076 21.4196 32.4944 20.4775 31.5524L21.9414 29.2647L23.6472 27.5589L25.373 25.834L27.0979 24.1082L28.8238 22.3823Z" fill="#007ACC"/>
<path d="M22.353 29.6771C23.295 30.6192 23.7665 31.8535 23.7665 33.0888C23.7665 34.324 23.295 35.5583 22.353 36.5004C21.4692 37.3842 20.327 37.8531 19.1702 37.9078C17.8602 37.9696 16.5301 37.5007 15.5298 36.5004L1.41266 22.3825C0.470625 21.4403 0 20.206 0 18.9708C0 17.7356 0.470625 16.5013 1.41266 15.5592C2.68789 14.2839 4.49805 13.8725 6.11953 14.3231C6.89461 14.5379 7.62703 14.9503 8.23594 15.5592L8.29508 15.6183L9.34242 16.6657L21.9416 29.2648L22.353 29.6771Z" fill="#00A3FF"/>
<path d="M18.9412 36.2172C18.1055 36.2172 17.3198 35.8919 16.7292 35.3011L5.90187 24.4739C5.715 24.287 5.715 23.9842 5.90187 23.7974C6.08867 23.6105 6.3918 23.6106 6.57836 23.7974L17.4056 34.6245C17.8157 35.0345 18.3609 35.2603 18.941 35.2603C19.5209 35.2603 20.0666 35.0344 20.4776 34.6243C21.3241 33.7777 21.3241 32.3998 20.4773 31.5529C20.2905 31.366 20.2905 31.0631 20.4773 30.8763C20.6641 30.6895 20.9673 30.6895 21.1538 30.8763C22.3738 32.0963 22.3738 34.0813 21.1538 35.3012C20.5622 35.892 19.7765 36.2172 18.9412 36.2172Z" fill="#00558A"/>
<path d="M17.2953 28.1723C17.1729 28.1723 17.0505 28.1256 16.9571 28.0321L6.35947 17.4354C5.95002 17.0253 5.40479 16.7996 4.82408 16.7996C4.24338 16.7996 3.69814 17.0254 3.289 17.4352C2.44182 18.2824 2.44182 19.6604 3.28869 20.5071C3.47557 20.694 3.47557 20.9969 3.28869 21.1837C3.10205 21.3706 2.79885 21.3706 2.61221 21.1837C1.39229 19.9638 1.39229 17.9788 2.61221 16.7589C3.20174 16.1682 3.98744 15.8428 4.82416 15.8428C5.66088 15.8428 6.44658 16.1682 7.0365 16.7591L17.6337 27.3556C17.8206 27.5425 17.8206 27.8454 17.6338 28.0321C17.5403 28.1256 17.4178 28.1723 17.2953 28.1723Z" fill="#00558A"/>
<path d="M33.7263 17.4831L34.8438 18.5996L35.3971 18.0458L34.2796 16.9293L33.7263 17.4831Z" fill="#00558A"/>
<path d="M30.272 20.9351L31.3896 22.0527L31.9432 21.4992L30.8256 20.3815L30.272 20.9351Z" fill="#00558A"/>
<path d="M31.9996 19.2086L33.1172 20.3262L33.6707 19.7726L32.5531 18.655L31.9996 19.2086Z" fill="#00558A"/>
<path d="M28.5484 22.6597L29.666 23.7773L30.2195 23.2238L29.1019 22.1062L28.5484 22.6597Z" fill="#00558A"/>
<path d="M25.0968 26.1114L26.2148 27.2285L26.7682 26.6747L25.6501 25.5576L25.0968 26.1114Z" fill="#00558A"/>
<path d="M26.8209 24.3853L27.9385 25.5029L28.4921 24.9493L27.3745 23.8317L26.8209 24.3853Z" fill="#00558A"/>
<path d="M23.3697 27.8365L24.4873 28.9541L25.0409 28.4005L23.9233 27.2829L23.3697 27.8365Z" fill="#00558A"/>
</g>
<defs>
<clipPath id="clip0_812_888">
<rect width="40" height="40" fill="white"/>
</clipPath>
</defs>
</svg>
