<svg width="40" height="40" viewBox="0 0 40 40" fill="none" xmlns="http://www.w3.org/2000/svg">
<g clip-path="url(#clip0_817_939)">
<path d="M15.8604 18.5793L18.6197 15.475L15.7224 12.6467C13.377 10.3013 11.3764 7.81788 9.85885 4.85156L9.78985 4.92056C9.78985 6.43822 9.03106 7.95581 7.65132 8.8526C6.89253 9.40446 5.99574 9.68039 5.02994 9.68039L4.96094 9.7494C7.92726 11.2671 10.4106 13.2676 12.7561 15.613L15.8604 18.5793Z" fill="#00A3FF"/>
<path d="M27.4498 24.3741L22.4829 19.4072L19.7236 22.5115L24.5525 27.3403C26.415 29.2029 28.6915 32.5141 30.416 35.1355L30.485 35.0665C30.485 33.5488 31.2438 32.0312 32.6235 31.0654C33.3823 30.5135 34.3481 30.3066 35.2449 30.2376L35.3139 30.1686C32.6235 28.5131 29.3124 26.2367 27.4498 24.3741Z" fill="#00A3FF"/>
<path d="M4.47821 0.0229832L6.61673 3.74809L6.47873 4.09302C5.92679 5.26575 4.68513 5.95554 3.44341 5.88662H3.09847L0.960026 2.23051C-0.419629 4.30003 -0.00577186 7.26627 2.20175 8.85293C3.78834 10.0257 5.99587 10.0257 7.65145 8.92194C10.2728 7.12834 10.4798 3.61024 8.41024 1.47172C7.30652 0.367917 5.92679 -0.114943 4.47821 0.0229832Z" fill="#007ACC"/>
<path d="M35.7275 39.8951L33.589 36.17L33.727 35.825C34.2789 34.6523 35.5206 33.9625 36.7622 34.0314H37.1072L39.1767 37.6875C40.5563 35.618 40.1425 32.6518 37.935 31.0651C36.3484 29.8924 34.1409 29.8924 32.4853 30.9961C29.8639 32.7897 29.657 36.3078 31.7265 38.4463C32.8992 39.5501 34.3479 40.033 35.7275 39.8951Z" fill="#007ACC"/>
<path d="M22.0692 11.5433C23.6557 9.95676 23.8627 7.4733 22.2072 5.81771C18.9649 2.57547 17.1024 2.9204 13.4463 2.9204C18.9649 0.506022 22.966 -0.0459176 26.967 1.81668C28.6916 2.57547 29.3814 3.26533 30.7611 4.64499L33.2445 7.12837C33.8653 7.74923 34.2792 8.57702 34.4172 9.40482C34.6241 10.7155 34.2792 10.9914 35.176 11.9572C35.4519 12.2331 35.8659 12.2331 36.1418 11.9572C36.4177 11.6813 36.8317 11.6813 37.1076 11.9572L39.522 14.3717C40.0739 14.9235 40.0739 15.7513 39.522 16.3032L34.6242 21.201C34.0724 21.7529 33.2446 21.7529 32.6927 21.201L30.4162 18.8556C30.1403 18.5796 30.1403 18.1657 30.4162 17.8898C30.6922 17.6138 30.6922 17.131 30.4162 16.855C29.4504 15.8892 29.1745 16.2342 27.8639 16.0962C26.9671 15.9582 26.2083 15.5444 25.5874 14.9235L22.0692 11.5433Z" fill="#007ACC"/>
<path d="M22.0686 11.543L0.683767 35.4802C-0.144026 36.308 -0.213028 37.6877 0.614765 38.4465L1.58056 39.4123C2.40836 40.2401 3.71909 40.1711 4.54688 39.3433L26.0007 15.3371L22.0686 11.543Z" fill="#00558A"/>
<path d="M3.09822 33.135L4.54688 34.5836C4.68488 34.7216 4.89181 34.7906 5.02974 34.7906C5.23667 34.7906 5.37467 34.7216 5.5126 34.5836C5.78853 34.3077 5.78853 33.8938 5.5126 33.6178L4.06402 32.1693C3.99502 32.1003 3.92601 32.0312 3.85709 32.0312L3.0293 32.997C3.0293 32.997 3.0293 33.066 3.09822 33.135Z" fill="#007ACC"/>
<path d="M1.16699 35.067L2.61564 36.5157C2.75365 36.6537 2.96058 36.7226 3.0985 36.7226C3.30543 36.7226 3.44344 36.6536 3.58136 36.5157C3.85729 36.2398 3.85729 35.8258 3.58136 35.5499L2.13271 34.1012L2.0637 34.0322L1.16699 35.067C1.09798 35.067 1.09798 35.067 1.16699 35.067Z" fill="#007ACC"/>
<path d="M26.9664 27.7538L25.9316 28.7886C26.2076 29.1335 26.4835 29.4784 26.7594 29.8923C26.7594 29.8923 26.8284 29.8923 26.8284 29.8233L27.9322 28.7196C28.2081 28.4436 28.2081 28.0297 27.9322 27.7538C27.6562 27.4779 27.2423 27.4779 26.9664 27.7538Z" fill="#007ACC"/>
<path d="M28.8976 29.7548L27.5869 31.0655C27.8628 31.4104 28.1388 31.8243 28.4147 32.1692L28.4837 32.1002L29.8634 30.7206C30.1393 30.4446 30.1393 30.0307 29.8634 29.7548C29.5874 29.4788 29.1735 29.4789 28.8976 29.7548Z" fill="#007ACC"/>
</g>
<defs>
<clipPath id="clip0_817_939">
<rect width="40" height="40" fill="white"/>
</clipPath>
</defs>
</svg>
